<?xml version="1.0" encoding="UTF-8" standalone="no"?>
<!-- Created with Inkscape (http://www.inkscape.org/) -->

<svg
   width="32.0px"
   height="32.0px"
   viewBox="0 0 32.0 32.0"
   version="1.1"
   id="SVGRoot"
   sodipodi:docname="main-32x32.svg"
   inkscape:version="1.1.1 (3bf5ae0d25, 2021-09-20)"
   xmlns:inkscape="http://www.inkscape.org/namespaces/inkscape"
   xmlns:sodipodi="http://sodipodi.sourceforge.net/DTD/sodipodi-0.dtd"
   xmlns="http://www.w3.org/2000/svg"
   xmlns:svg="http://www.w3.org/2000/svg">
  <sodipodi:namedview
     id="namedview18"
     pagecolor="#ffffff"
     bordercolor="#666666"
     borderopacity="1.0"
     inkscape:pageshadow="2"
     inkscape:pageopacity="0.0"
     inkscape:pagecheckerboard="0"
     inkscape:document-units="px"
     showgrid="true"
     inkscape:zoom="5.9295174"
     inkscape:cx="74.963942"
     inkscape:cy="0.67459116"
     inkscape:window-width="1284"
     inkscape:window-height="1040"
     inkscape:window-x="259"
     inkscape:window-y="106"
     inkscape:window-maximized="0"
     inkscape:current-layer="layer1">
    <inkscape:grid
       type="xygrid"
       id="grid42" />
  </sodipodi:namedview>
  <defs
     id="defs13" />
  <g
     inkscape:label="Layer 1"
     inkscape:groupmode="layer"
     id="layer1">
    <g
       id="g19225"
       transform="matrix(2.4456449,0,0,2.1673843,-3.3354551,-0.66608419)">
      <path
         style="fill:#f4f50b;stroke-width:0.0365724"
         d="M 8.2523937,14.625047 C 8.2121185,14.586022 8.1243425,14.453726 8.0573359,14.331054 7.9903292,14.208383 7.8351903,13.925593 7.7125825,13.702631 7.5899747,13.47967 7.3668869,13.073317 7.2168321,12.799624 7.0667773,12.52593 6.8133663,12.0671 6.6536972,11.78 6.4940281,11.4929 6.2432395,11.0393 6.0963892,10.772 5.8338343,10.294092 5.3658999,9.4504418 5.127962,9.026 5.0613637,8.9072 4.9918198,8.7452 4.9734194,8.666 4.9550193,8.5868 4.9218431,8.441 4.8996946,8.342 4.8480154,8.1110046 4.8475138,7.2442754 4.8989255,7.01 5.0042181,6.5301808 5.1654031,6.1573486 5.4411502,5.7557974 L 5.6505427,5.450871 V 4.3134355 3.176 H 5.4492769 C 5.3264451,3.176 5.1780347,3.1465034 5.0684497,3.10031 4.7283354,2.9569429 3.6999077,2.6413809 3.6686572,2.6707987 c -0.017219,0.016209 -0.013039,0.062546 0.00929,0.1029697 0.024771,0.044848 0.040507,0.3094787 0.040367,0.678865 -1.857e-4,0.4778175 -0.012428,0.6280354 -0.058126,0.7129555 -0.054471,0.1012215 -0.053358,0.1111507 0.018806,0.1677704 0.087101,0.06834 0.098378,0.2014488 0.032111,0.3790159 -0.038807,0.1039857 -0.033987,0.1406376 0.037154,0.282519 0.04496,0.089667 0.081746,0.2276367 0.081746,0.306598 0,0.1233389 -0.017013,0.1536167 -0.1207501,0.2149024 C 3.556821,5.6064496 3.3984782,5.6071666 3.2483773,5.5184846 3.0905066,5.4252105 3.0598658,5.279656 3.154474,5.072421 3.1944297,4.9848992 3.2457347,4.9021438 3.2684848,4.88852 3.3310073,4.8510793 3.318323,4.763794 3.2355412,4.6618222 3.1382627,4.5419934 3.1416671,4.5000544 3.2597049,4.3641307 3.3570336,4.2520544 3.3574427,4.2492475 3.294951,4.1222708 3.2409835,4.0126141 3.232703,3.8851687 3.2384005,3.251901 L 3.245076,2.51 3.1474902,2.456 C 2.94544,2.3441934 3.0378692,2.2701999 3.5885029,2.102951 4.0489977,1.9630808 5.0297506,1.6720855 5.2046963,1.6234167 5.2762175,1.6035199 5.3681733,1.5726825 5.4090426,1.554889 5.4836011,1.5224281 5.8208044,1.4215656 6.3750432,1.2659438 6.5385202,1.220042 6.6889934,1.1723494 6.709428,1.1599603 6.744174,1.1388946 7.0469981,1.0456076 7.8076797,0.82163629 8.2766633,0.68355105 8.4904783,0.69425572 9.1026927,0.88647132 9.5882106,1.0389083 10.19883,1.2244507 11.186469,1.5196464 c 0.255433,0.076346 0.75701,0.227904 1.114616,0.3367947 0.357606,0.1088907 0.72543,0.2184365 0.817386,0.2434351 0.241576,0.065674 0.557308,0.2026236 0.557308,0.2417347 0,0.018465 -0.02123,0.050647 -0.04718,0.071515 -0.08312,0.066839 -2.193569,0.7394379 -2.386396,0.7605422 L 11.056431,3.194 l -0.0098,1.0954692 -0.0098,1.0954688 0.0865,0.092531 c 0.126391,0.1352012 0.419647,0.5751893 0.487571,0.7315308 0.03226,0.07425 0.08627,0.19575 0.12002,0.27 0.103571,0.2278426 0.169326,0.617031 0.187134,1.1075983 0.02178,0.6000894 -0.07055,1.0984709 -0.265686,1.4339844 C 11.581459,9.1423621 11.404321,9.4607 11.258644,9.728 c -0.145677,0.2673 -0.395506,0.7209 -0.555175,1.008 -0.159669,0.2871 -0.410371,0.7407 -0.557115,1.008 -0.1467442,0.2673 -0.3809005,0.6885 -0.5203472,0.936 -0.1394466,0.2475 -0.372482,0.6687 -0.5178562,0.936 -0.325569,0.598625 -0.5250462,0.942497 -0.5920205,1.020563 -0.068332,0.07965 -0.1744304,0.07502 -0.2637364,-0.01152 z M 9.5416367,2.6142499 c -0.012346,-0.011963 -0.044391,-0.013241 -0.071212,-0.00284 -0.029639,0.011492 -0.020835,0.020023 0.022447,0.02175 0.039166,0.00156 0.06111,-0.00695 0.048764,-0.018908 z"
         id="path19235" />
      <path
         style="fill:#5d6060;stroke-width:0.0365724"
         d="M 8.2523937,14.625047 C 8.2121185,14.586022 8.1243425,14.453726 8.0573359,14.331054 7.9903292,14.208383 7.8351903,13.925593 7.7125825,13.702631 7.5899747,13.47967 7.3668869,13.073317 7.2168321,12.799624 7.0667773,12.52593 6.8133663,12.0671 6.6536972,11.78 6.4940281,11.4929 6.2432395,11.0393 6.0963892,10.772 5.8338343,10.294092 5.3658999,9.4504418 5.127962,9.026 5.0613637,8.9072 4.9918198,8.7452 4.9734194,8.666 4.9550193,8.5868 4.9218431,8.441 4.8996946,8.342 4.8480154,8.1110046 4.8475138,7.2442754 4.8989255,7.01 5.0042181,6.5301808 5.1654031,6.1573486 5.4411502,5.7557974 L 5.6505427,5.450871 V 4.3134355 3.176 H 5.4492769 C 5.3264451,3.176 5.1780347,3.1465034 5.0684497,3.10031 4.7283354,2.9569429 3.6999077,2.6413809 3.6686572,2.6707987 c -0.017219,0.016209 -0.013039,0.062546 0.00929,0.1029697 0.024771,0.044848 0.040507,0.3094787 0.040367,0.678865 -1.857e-4,0.4778175 -0.012428,0.6280354 -0.058126,0.7129555 -0.054471,0.1012215 -0.053358,0.1111507 0.018806,0.1677704 0.087101,0.06834 0.098378,0.2014488 0.032111,0.3790159 -0.038807,0.1039857 -0.033987,0.1406376 0.037154,0.282519 0.04496,0.089667 0.081746,0.2276367 0.081746,0.306598 0,0.1233389 -0.017013,0.1536167 -0.1207501,0.2149024 C 3.556821,5.6064496 3.3984782,5.6071666 3.2483773,5.5184846 3.0905066,5.4252105 3.0598658,5.279656 3.154474,5.072421 3.1944297,4.9848992 3.2457347,4.9021438 3.2684848,4.88852 3.3310073,4.8510793 3.318323,4.763794 3.2355412,4.6618222 3.1382627,4.5419934 3.1416671,4.5000544 3.2597049,4.3641307 3.3570336,4.2520544 3.3574427,4.2492475 3.294951,4.1222708 3.2409835,4.0126141 3.232703,3.8851687 3.2384005,3.251901 L 3.245076,2.51 3.1474902,2.456 C 2.94544,2.3441934 3.0378692,2.2701999 3.5885029,2.102951 4.0489977,1.9630808 5.0297506,1.6720855 5.2046963,1.6234167 5.2762175,1.6035199 5.3681733,1.5726825 5.4090426,1.554889 5.4836011,1.5224281 5.8208044,1.4215656 6.3750432,1.2659438 6.5385202,1.220042 6.6889934,1.1723494 6.709428,1.1599603 6.744174,1.1388946 7.0469981,1.0456076 7.8076797,0.82163629 8.2766633,0.68355105 8.4904783,0.69425572 9.1026927,0.88647132 9.5882106,1.0389083 10.19883,1.2244507 11.186469,1.5196464 c 0.255433,0.076346 0.75701,0.227904 1.114616,0.3367947 0.357606,0.1088907 0.72543,0.2184365 0.817386,0.2434351 0.241576,0.065674 0.557308,0.2026236 0.557308,0.2417347 0,0.018465 -0.02123,0.050647 -0.04718,0.071515 -0.08312,0.066839 -2.193569,0.7394379 -2.386396,0.7605422 L 11.056431,3.194 l -0.0098,1.0954692 -0.0098,1.0954688 0.0865,0.092531 c 0.126391,0.1352012 0.419647,0.5751893 0.487571,0.7315308 0.03226,0.07425 0.08627,0.19575 0.12002,0.27 0.103571,0.2278426 0.169326,0.617031 0.187134,1.1075983 0.02178,0.6000894 -0.07055,1.0984709 -0.265686,1.4339844 C 11.581459,9.1423621 11.404321,9.4607 11.258644,9.728 c -0.145677,0.2673 -0.395506,0.7209 -0.555175,1.008 -0.159669,0.2871 -0.410371,0.7407 -0.557115,1.008 -0.1467442,0.2673 -0.3809005,0.6885 -0.5203472,0.936 -0.1394466,0.2475 -0.372482,0.6687 -0.5178562,0.936 -0.325569,0.598625 -0.5250462,0.942497 -0.5920205,1.020563 -0.068332,0.07965 -0.1744304,0.07502 -0.2637364,-0.01152 z M 8.8643525,9.2305016 C 9.3423786,9.0688141 9.5866724,8.8690126 9.8186578,8.45 9.9274715,8.2534605 9.971595,8.0613141 9.971595,7.784 9.971595,7.4097058 9.8920575,7.1845478 9.6349587,6.8310354 9.4775195,6.6145558 9.0872921,6.3676754 8.7900447,6.296494 8.6161171,6.2548438 8.169973,6.2495119 8.0098135,6.287169 7.5024038,6.406473 6.979971,6.9013372 6.8666595,7.37 6.7412882,7.8885422 6.8180214,8.274892 7.1374696,8.7335248 7.2939635,8.9582034 7.7649264,9.259275 7.9618909,9.2605512 c 0.046792,2.88e-4 0.1101553,0.016255 0.1408072,0.035449 0.1080011,0.067628 0.4567296,0.037639 0.7616544,-0.065499 z M 9.5416367,2.6142499 c -0.012346,-0.011963 -0.044391,-0.013241 -0.071212,-0.00284 -0.029639,0.011492 -0.020835,0.020023 0.022447,0.02175 0.039166,0.00156 0.06111,-0.00695 0.048764,-0.018908 z"
         id="path19233" />
      <path
         style="fill:#2531a1;stroke-width:0.0365724"
         d="M 8.2896404,14.571369 C 8.2648469,14.542423 8.1883215,14.416873 8.1195842,14.292369 8.0508473,14.167866 7.8919673,13.8797 7.7665184,13.652 7.6410695,13.4243 7.4077993,13.0031 7.2481406,12.716 7.0884815,12.4289 6.8377014,11.9753 6.6908511,11.708 6.5440008,11.4407 6.2932122,10.9871 6.133543,10.7 5.9738739,10.4129 5.7235519,9.9593 5.5772723,9.692 5.4309927,9.4247 5.2593831,9.1176934 5.1959176,9.0097633 5.1324521,8.9018331 5.0657516,8.7479331 5.0476948,8.6677633 5.0296377,8.5875934 4.9973428,8.4491 4.9759284,8.36 4.9200155,8.1273604 4.8943333,7.3229779 4.9380288,7.1729554 4.9583661,7.1031298 4.9943277,6.9569 5.0179435,6.848 5.0415596,6.7391 5.0832982,6.5933 5.1106959,6.524 5.1380939,6.4547 5.181779,6.343154 5.2077737,6.2761202 5.2337688,6.2090864 5.3607451,6.0010446 5.489944,5.8138057 L 5.7248505,5.473371 V 4.3803793 c 0,-0.7092022 0.014158,-1.1230992 0.04032,-1.1787358 C 5.8526512,3.0156067 6.3775058,2.8259004 7.0438129,2.7394838 7.930027,2.6245466 8.3841866,2.6082321 9.0315449,2.6680792 9.8823057,2.746731 10.147845,2.8103743 10.666315,3.0598942 L 10.944969,3.194 l 0.01858,1.122691 0.01858,1.1226909 0.0989,0.1013091 c 0.138655,0.1420351 0.417818,0.5544943 0.473604,0.6997417 0.02568,0.066862 0.07281,0.1782673 0.104725,0.2475673 0.03192,0.0693 0.07318,0.1908 0.09169,0.27 0.01851,0.0792 0.05298,0.225 0.07661,0.324 0.05293,0.2218277 0.05222,0.9800064 -0.0012,1.224 -0.08917,0.4076986 -0.119937,0.48749 -0.31924,0.828 -0.08112,0.1386 -0.242666,0.4302 -0.358982,0.648 -0.116317,0.2178 -0.341615,0.6309 -0.500664,0.918 -0.159048,0.2871 -0.413884,0.7488 -0.566302,1.026 -0.1524175,0.2772 -0.3909788,0.7065 -0.530136,0.954 -0.1391572,0.2475 -0.3727091,0.6687 -0.5190035,0.936 -0.5684576,1.038649 -0.6173343,1.101535 -0.7425291,0.955369 z M 8.8270474,9.3111646 C 9.2380123,9.1840119 9.5766698,8.957533 9.7224646,8.7123496 9.8185233,8.5508076 9.9527699,8.26793 9.9934021,8.141444 10.080046,7.871728 10.020457,7.3865902 9.8648791,7.0950738 9.7288235,6.8401387 9.4613799,6.524 9.3817677,6.524 9.3576262,6.524 9.316407,6.4989364 9.2901685,6.468303 9.2639301,6.4376698 9.149028,6.3688198 9.0348304,6.315303 8.8459847,6.2268038 8.78854,6.2180223 8.3999291,6.218248 7.9269537,6.218536 7.8032844,6.2549256 7.4049054,6.5111422 7.0135889,6.7628168 6.7010703,7.3857799 6.7381346,7.840259 c 0.02845,0.3488468 0.1364684,0.6344543 0.3527556,0.9327056 0.2323695,0.3204285 0.8409808,0.6159449 1.290462,0.6265952 0.081739,0.00194 0.2823014,-0.037841 0.4456952,-0.088395 z M 3.3010327,5.4596485 C 3.1611469,5.3861044 3.1389664,5.2674232 3.2320617,5.0906085 3.2742607,5.0104606 3.3257452,4.93473 3.3464719,4.9223179 3.4063123,4.8864831 3.3899475,4.7512315 3.311889,4.6364962 3.2579784,4.5572548 3.2493955,4.5141837 3.2774088,4.4634658 c 0.052165,-0.094444 0.1800019,-0.1320764 0.3051113,-0.089817 0.1127415,0.038081 0.1126531,0.037288 0.041456,0.3722457 -0.016668,0.078416 -5.201e-4,0.1560766 0.053968,0.2595658 0.042763,0.08122 0.077751,0.2046009 0.077751,0.2741814 0,0.1036821 -0.019779,0.1364202 -0.1096166,0.1814342 -0.1352832,0.067785 -0.2140197,0.067459 -0.3450461,-0.00143 z M 3.3676863,4.1039896 C 3.2836302,3.9877093 3.2817807,2.6673873 3.3655797,2.6 3.4534434,2.5293442 3.431053,2.4637941 3.3102751,2.4380907 3.1884171,2.4121574 3.1298184,2.352956 3.1903918,2.3169751 3.2344035,2.2908319 3.7124921,2.1400605 4.4987728,1.9043603 5.2362819,1.6832802 6.1406365,1.4087891 6.8951974,1.1769939 8.0659073,0.81736096 8.1329507,0.80000234 8.3517892,0.79985679 8.5045589,0.79975599 8.7236448,0.84756432 9.1058526,0.96440898 10.114445,1.2727455 10.684449,1.4448029 10.963546,1.5251593 c 0.15326,0.044126 0.295373,0.090498 0.315808,0.1030502 0.02044,0.012552 0.104031,0.04059 0.185769,0.062307 0.281022,0.074665 1.040391,0.3016469 1.114616,0.3331679 0.04087,0.017356 0.132826,0.047652 0.204347,0.067326 0.681303,0.1874069 0.828388,0.2464578 0.736136,0.2955395 C 13.374606,2.464024 11.313491,3.104 11.209594,3.104 c -0.07932,0 -0.16138,-0.032852 -0.23098,-0.092473 C 10.862806,2.912325 10.451464,2.70834 10.365486,2.707476 10.336816,2.707188 10.238117,2.680244 10.146161,2.647602 9.9468257,2.5768427 9.6868979,2.5373459 9.0872757,2.4867013 8.5297403,2.4396114 8.2873993,2.43957 7.6568517,2.4864565 6.7158066,2.5564314 6.1694627,2.6936243 5.8270585,2.9459378 5.5745805,3.1319858 5.4201252,3.1494617 5.0927101,3.0290269 4.7729397,2.9114037 3.7481724,2.5740416 3.6349453,2.5491182 3.5144947,2.5226048 3.5053225,2.5635511 3.5885029,2.7564471 c 0.066591,0.1544253 0.080442,1.2435462 0.01727,1.3579193 -0.051472,0.09319 -0.1668558,0.088161 -0.2380866,-0.010377 z"
         id="path19231" />
      <path
         style="fill:#13235d;stroke-width:0.0365724"
         d="M 8.2896404,14.571369 C 8.2648469,14.542423 8.1883215,14.416873 8.1195842,14.292369 8.0508473,14.167866 7.8919673,13.8797 7.7665184,13.652 7.6410695,13.4243 7.4077993,13.0031 7.2481406,12.716 7.0884815,12.4289 6.8377014,11.9753 6.6908511,11.708 6.5440008,11.4407 6.2932122,10.9871 6.133543,10.7 5.9738739,10.4129 5.7235519,9.9593 5.5772723,9.692 5.4309927,9.4247 5.2593831,9.1176934 5.1959176,9.0097633 5.1324521,8.9018331 5.0657516,8.7479331 5.0476948,8.6677633 5.0296377,8.5875934 4.9973428,8.4491 4.9759284,8.36 4.9200155,8.1273604 4.8943333,7.3229779 4.9380288,7.1729554 4.9583661,7.1031298 4.9943277,6.9569 5.0179435,6.848 5.0415596,6.7391 5.0832982,6.5933 5.1106959,6.524 5.1380939,6.4547 5.181779,6.343154 5.2077737,6.2761202 5.2337688,6.2090864 5.3607451,6.0010446 5.489944,5.8138057 L 5.7248505,5.473371 V 4.3803793 c 0,-0.7092022 0.014158,-1.1230992 0.04032,-1.1787358 C 5.8526512,3.0156067 6.3775058,2.8259004 7.0438129,2.7394838 7.930027,2.6245466 8.3841866,2.6082321 9.0315449,2.6680792 9.8823057,2.746731 10.147845,2.8103743 10.666315,3.0598942 L 10.944969,3.194 l 0.01858,1.122691 0.01858,1.1226909 0.0989,0.1013091 c 0.138655,0.1420351 0.417818,0.5544943 0.473604,0.6997417 0.02568,0.066862 0.07281,0.1782673 0.104725,0.2475673 0.03192,0.0693 0.07318,0.1908 0.09169,0.27 0.01851,0.0792 0.05298,0.225 0.07661,0.324 0.05293,0.2218277 0.05222,0.9800064 -0.0012,1.224 -0.08917,0.4076986 -0.119937,0.48749 -0.31924,0.828 -0.08112,0.1386 -0.242666,0.4302 -0.358982,0.648 -0.116317,0.2178 -0.341615,0.6309 -0.500664,0.918 -0.159048,0.2871 -0.413884,0.7488 -0.566302,1.026 -0.1524175,0.2772 -0.3909788,0.7065 -0.530136,0.954 -0.1391572,0.2475 -0.3727091,0.6687 -0.5190035,0.936 -0.5684576,1.038649 -0.6173343,1.101535 -0.7425291,0.955369 z M 8.7107432,13.498215 C 8.8498933,13.236296 9.0944758,12.7871 9.2542597,12.5 9.4140436,12.2129 9.6646621,11.7593 9.8111899,11.492 9.9577181,11.2247 10.200711,10.7873 10.351174,10.52 10.501637,10.2527 10.744811,9.8072 10.89156,9.53 11.038309,9.2528 11.188984,8.9840766 11.226394,8.932837 11.324714,8.7981697 11.4837,8.3168443 11.4837,8.1538525 c 0,-0.076699 0.01823,-0.1571134 0.0405,-0.1786993 C 11.576357,7.9246207 11.508164,7.1488869 11.428285,6.884 11.282947,6.4020507 11.058997,6.0069709 10.720996,5.6362436 L 10.512901,5.408 10.078742,5.4102248 C 9.8399552,5.4114488 9.5191894,5.4283011 9.3659297,5.4476738 9.21267,5.4670465 8.9618814,5.4992532 8.8086217,5.519244 8.4036215,5.5720707 8.1068984,5.5585711 7.2481591,5.4482491 7.0948994,5.42856 6.8081392,5.4114492 6.6109142,5.4102248 L 6.2523232,5.408 6.1464908,5.5348006 c -0.058208,0.06974 -0.1564992,0.1871903 -0.2184254,0.261 C 5.7642926,5.9910016 5.6270905,6.19892 5.5603785,6.353 5.5282303,6.42725 5.4745972,6.54875 5.441194,6.623 5.2750943,6.9922128 5.1997188,7.6005462 5.2616554,8.072 c 0.032985,0.2510788 0.185079,0.7094437 0.2758716,0.8313948 0.038243,0.051367 0.1811935,0.302467 0.3176678,0.558 C 5.9916691,9.7169275 6.2339644,10.1609 6.3936287,10.448 c 0.353846,0.636267 0.7843929,1.420343 0.9846522,1.793167 0.081784,0.152258 0.222652,0.406433 0.3130392,0.564833 0.090388,0.1584 0.2550494,0.4662 0.3659158,0.684 0.2174364,0.42716 0.2879901,0.526266 0.3565141,0.500787 0.024196,-0.009 0.157843,-0.230654 0.2969932,-0.492572 z M 7.9912365,9.656 C 7.9605846,9.6368062 7.8974108,9.6208543 7.8508499,9.6205512 7.5558909,9.6186288 6.8584381,9.070073 6.6513524,8.677128 6.4651822,8.3238693 6.4318555,8.1882634 6.4318555,7.784 6.4318555,7.2073905 6.5929142,6.843378 7.031606,6.4284909 7.4610932,6.0223083 7.8166423,5.877048 8.3813522,5.877048 c 0.3964853,0 0.540808,0.033875 0.9031775,0.2119942 0.3009274,0.1479179 0.7757783,0.6329949 0.9191633,0.9389578 0.105299,0.224694 0.10966,0.254759 0.10966,0.756 0,0.5197784 -5.49e-4,0.5231491 -0.128873,0.792 C 9.9406581,9.0868288 9.429474,9.4968886 8.856098,9.6415957 8.6284113,9.6990589 8.0747276,9.7082803 7.9912365,9.656 Z M 8.8270474,9.3111646 C 9.2380123,9.1840119 9.5766698,8.957533 9.7224646,8.7123496 9.8185233,8.5508076 9.9527699,8.26793 9.9934021,8.141444 10.080046,7.871728 10.020457,7.3865902 9.8648791,7.0950738 9.7288235,6.8401387 9.4613799,6.524 9.3817677,6.524 9.3576262,6.524 9.316407,6.4989364 9.2901685,6.468303 9.2639301,6.4376698 9.149028,6.3688198 9.0348304,6.315303 8.8459847,6.2268038 8.78854,6.2180223 8.3999291,6.218248 7.9269537,6.218536 7.8032844,6.2549256 7.4049054,6.5111422 7.0135889,6.7628168 6.7010703,7.3857799 6.7381346,7.840259 c 0.02845,0.3488468 0.1364684,0.6344543 0.3527556,0.9327056 0.2323695,0.3204285 0.8409808,0.6159449 1.290462,0.6265952 0.081739,0.00194 0.2823014,-0.037841 0.4456952,-0.088395 z M 3.3010327,5.4596485 C 3.1611469,5.3861044 3.1389664,5.2674232 3.2320617,5.0906085 3.2742607,5.0104606 3.3257452,4.93473 3.3464719,4.9223179 3.4063123,4.8864831 3.3899475,4.7512315 3.311889,4.6364962 3.2579784,4.5572548 3.2493955,4.5141837 3.2774088,4.4634658 c 0.052165,-0.094444 0.1800019,-0.1320764 0.3051113,-0.089817 0.1127415,0.038081 0.1126531,0.037288 0.041456,0.3722457 -0.016668,0.078416 -5.201e-4,0.1560766 0.053968,0.2595658 0.042763,0.08122 0.077751,0.2046009 0.077751,0.2741814 0,0.1036821 -0.019779,0.1364202 -0.1096166,0.1814342 -0.1352832,0.067785 -0.2140197,0.067459 -0.3450461,-0.00143 z M 3.3676863,4.1039896 C 3.2836302,3.9877093 3.2817807,2.6673873 3.3655797,2.6 3.4534434,2.5293442 3.431053,2.4637941 3.3102751,2.4380907 3.1884171,2.4121574 3.1298184,2.352956 3.1903918,2.3169751 3.2344035,2.2908319 3.7124921,2.1400605 4.4987728,1.9043603 5.2362819,1.6832802 6.1406365,1.4087891 6.8951974,1.1769939 8.0659073,0.81736096 8.1329507,0.80000234 8.3517892,0.79985679 8.5045589,0.79975599 8.7236448,0.84756432 9.1058526,0.96440898 10.114445,1.2727455 10.684449,1.4448029 10.963546,1.5251593 c 0.15326,0.044126 0.295373,0.090498 0.315808,0.1030502 0.02044,0.012552 0.104031,0.04059 0.185769,0.062307 0.281022,0.074665 1.040391,0.3016469 1.114616,0.3331679 0.04087,0.017356 0.132826,0.047652 0.204347,0.067326 0.681303,0.1874069 0.828388,0.2464578 0.736136,0.2955395 C 13.374606,2.464024 11.313491,3.104 11.209594,3.104 c -0.07932,0 -0.16138,-0.032852 -0.23098,-0.092473 C 10.862806,2.912325 10.451464,2.70834 10.365486,2.707476 10.336816,2.707188 10.238117,2.680244 10.146161,2.647602 9.9468257,2.5768427 9.6868979,2.5373459 9.0872757,2.4867013 8.5297403,2.4396114 8.2873993,2.43957 7.6568517,2.4864565 6.7158066,2.5564314 6.1694627,2.6936243 5.8270585,2.9459378 5.5745805,3.1319858 5.4201252,3.1494617 5.0927101,3.0290269 4.7729397,2.9114037 3.7481724,2.5740416 3.6349453,2.5491182 3.5144947,2.5226048 3.5053225,2.5635511 3.5885029,2.7564471 c 0.066591,0.1544253 0.080442,1.2435462 0.01727,1.3579193 -0.051472,0.09319 -0.1668558,0.088161 -0.2380866,-0.010377 z"
         id="path19229" />
      <path
         style="fill:#121616;stroke-width:0.0365724"
         d="M 8.3015382,14.544993 C 8.2706597,14.498201 8.1963508,14.364899 7.8814617,13.79142 7.7904336,13.625639 7.6817585,13.431398 7.6399616,13.359774 7.5981646,13.288149 7.4411947,13.004649 7.2911399,12.729774 7.141085,12.454898 6.8876741,11.9951 6.728005,11.708 6.5683358,11.4209 6.3175472,10.9673 6.1706969,10.7 5.9256092,10.253886 5.4902297,9.4685883 5.2090058,8.9653893 5.1461128,8.8528537 5.0762275,8.6827537 5.0537052,8.5873893 5.0311825,8.4920253 5.0039803,8.3816 4.9932555,8.342 4.9825303,8.3024 4.9652028,8.0628286 4.9547496,7.8096194 4.934374,7.3160497 4.9952283,6.8830258 5.1303637,6.56 5.1676379,6.4709 5.2192376,6.3432948 5.2450294,6.2764327 5.2708216,6.2095706 5.3642536,6.0503527 5.4526564,5.9226153 5.5410592,5.794878 5.6133889,5.6820385 5.6133889,5.6718609 c 0,-0.010178 0.033438,-0.059694 0.074308,-0.1100376 0.070757,-0.08716 0.074308,-0.1460441 0.074308,-1.2324027 0,-1.1381523 1.858e-4,-1.1410388 0.083596,-1.211651 C 5.9473858,3.0315882 6.1863532,2.924 6.2759884,2.924 c 0.036089,0 0.084862,-0.018648 0.1083849,-0.04144 0.045078,-0.043678 0.2748428,-0.091984 0.5851318,-0.1230196 0.1021732,-0.01022 0.2442867,-0.033857 0.3158079,-0.052527 0.1300259,-0.033943 0.782906,-0.076907 1.133193,-0.074572 0.1643186,0.00109 0.4951642,0.027344 1.170347,0.092852 0.2654495,0.025755 0.764823,0.1830942 1.094732,0.3449214 l 0.261384,0.1282143 0.01858,1.1332876 c 0.01832,1.1176135 0.01977,1.1347607 0.104766,1.2397856 0.221647,0.2738769 0.370568,0.4933743 0.431101,0.6354094 0.03635,0.085299 0.09191,0.2117887 0.123457,0.2810887 0.03155,0.0693 0.07257,0.1908 0.09117,0.27 0.01859,0.0792 0.05226,0.2169 0.07481,0.306 0.05241,0.2070554 0.05226,1.0068862 -2.23e-4,1.242 -0.0221,0.099 -0.05509,0.2455934 -0.07331,0.3257633 -0.01822,0.08017 -0.08505,0.2340698 -0.148518,0.342 C 11.503326,9.0816934 11.331716,9.3887 11.185437,9.656 c -0.14628,0.2673 -0.396602,0.7209 -0.556271,1.008 -0.159669,0.2871 -0.410417,0.7407 -0.557218,1.008 -0.1468009,0.2673 -0.3892704,0.7047 -0.538821,0.972 -0.1495507,0.2673 -0.3913882,0.7047 -0.537417,0.972 -0.5208207,0.953343 -0.6043393,1.065114 -0.6941669,0.928993 z M 8.518603,14.021 c 0.030736,-0.03465 0.1557654,-0.258362 0.2778434,-0.497138 0.1220779,-0.238777 0.2374555,-0.4561 0.2563947,-0.482941 0.018939,-0.02684 0.1541618,-0.268878 0.3004953,-0.537861 0.457181,-0.840367 0.7900096,-1.444461 1.0529096,-1.91106 0.139451,-0.2475 0.382553,-0.693 0.540227,-0.99 0.157674,-0.297 0.318015,-0.5786845 0.356313,-0.6259658 0.0383,-0.047281 0.105343,-0.1930814 0.148989,-0.324 C 11.710392,7.8763 11.636992,6.9505395 11.260119,6.2347494 11.115647,5.960357 10.777817,5.5201054 10.631129,5.4150664 10.520706,5.3359964 10.492435,5.3329101 10.024216,5.3488102 9.7541145,5.3579823 9.3074124,5.3927547 9.0315449,5.4260814 8.7556774,5.4594084 8.4714503,5.4864098 8.3999291,5.4860851 8.1073766,5.4847567 7.2236829,5.4038708 7.1442379,5.37115 7.0972985,5.3518177 6.8738016,5.336 6.647578,5.336 H 6.2362627 L 6.1013065,5.4782655 c -0.3302849,0.3481737 -0.673687,0.8273531 -0.673687,0.9400554 0,0.018955 -0.031895,0.1031371 -0.070879,0.1870715 C 5.1821287,6.9813454 5.1079123,7.7053108 5.1953213,8.18 c 0.049875,0.2708554 0.1819581,0.6464272 0.2670672,0.7593948 0.0387,0.051367 0.1819622,0.302467 0.3183607,0.558 C 5.9171478,9.7529275 6.1627616,10.205 6.3265578,10.502 c 0.1637961,0.297 0.4012458,0.7344 0.5276655,0.972 0.1264202,0.2376 0.2568934,0.4725 0.2899407,0.522 0.057224,0.08571 0.2407448,0.424317 0.8194925,1.512 0.1422283,0.2673 0.2850504,0.50625 0.3173821,0.531 0.082128,0.06287 0.1718619,0.05607 0.2375644,-0.018 z M 7.9726596,9.5759349 C 7.3370015,9.4263762 6.7946813,8.9286207 6.5619272,8.281128 6.487615,8.0744016 6.4877227,7.4933007 6.5621129,7.2863536 6.7451526,6.7771376 7.1175997,6.3569046 7.582544,6.1349959 L 7.861198,6.002 h 0.5387311 c 0.5380468,0 0.539038,1.44e-4 0.7802313,0.1204276 0.2919228,0.1455717 0.7490201,0.5658566 0.8760536,0.8055 0.175395,0.3308767 0.207174,0.4756878 0.190384,0.867546 C 10.219045,8.4385189 10.114641,8.6736759 9.6760914,9.080472 9.3748017,9.3599464 9.1220227,9.4979769 8.7616462,9.579806 8.55333,9.6271078 8.1824203,9.6252877 7.9726596,9.5759349 Z M 8.8270474,9.3111646 C 9.2380123,9.1840119 9.5766698,8.957533 9.7224646,8.7123496 9.8185233,8.5508076 9.9527699,8.26793 9.9934021,8.141444 10.080046,7.871728 10.020457,7.3865902 9.8648791,7.0950738 9.7288235,6.8401387 9.4613799,6.524 9.3817677,6.524 9.3576262,6.524 9.316407,6.4989364 9.2901685,6.468303 9.2639301,6.4376698 9.149028,6.3688198 9.0348304,6.315303 8.8459847,6.2268038 8.78854,6.2180223 8.3999291,6.218248 7.9269537,6.218536 7.8032844,6.2549256 7.4049054,6.5111422 7.0135889,6.7628168 6.7010703,7.3857799 6.7381346,7.840259 c 0.02845,0.3488468 0.1364684,0.6344543 0.3527556,0.9327056 0.2323695,0.3204285 0.8409808,0.6159449 1.290462,0.6265952 0.081739,0.00194 0.2823014,-0.037841 0.4456952,-0.088395 z M 3.3005605,5.4594091 C 3.1632791,5.3872456 3.159232,5.1859542 3.291272,4.997425 3.3964962,4.8471841 3.4103999,4.7179196 3.3284259,4.652 3.2614809,4.598166 3.255511,4.4670504 3.3172797,4.4072 3.3720527,4.354128 3.5130981,4.351265 3.6095224,4.40127 c 0.086435,0.044822 0.09177,0.1450134 0.015346,0.2882106 -0.052938,0.099191 -0.050583,0.117252 0.037154,0.2850156 0.05152,0.098513 0.093673,0.2359364 0.093673,0.3053862 0,0.1034193 -0.019839,0.1362125 -0.1096166,0.1811966 -0.1353924,0.06784 -0.214013,0.067461 -0.3455183,-0.00167 z M 3.3676863,4.1039896 C 3.2836302,3.9877093 3.2817807,2.6673873 3.3655797,2.6 3.4560223,2.5272705 3.4300603,2.4643818 3.291272,2.42 3.2197508,2.3971289 3.1612334,2.3655861 3.1612334,2.3499049 c 0,-0.015681 0.1880915,-0.086652 0.4179811,-0.1577126 C 3.809104,2.1211315 4.2353864,1.9894179 4.5265089,1.8994954 4.817631,1.8095729 5.0859748,1.736 5.1228285,1.736 c 0.036853,0 0.08289,-0.013598 0.1023024,-0.030218 C 5.2445438,1.6891629 5.461058,1.6158404 5.7062735,1.5428436 5.9514891,1.4698468 6.4697856,1.3127821 6.8580435,1.1938108 7.2463014,1.0748396 7.697721,0.9370687 7.861198,0.8876533 8.2836312,0.7599613 8.467762,0.77078863 9.0655388,0.95847132 9.5438656,1.1086506 10.098061,1.2771157 11.149315,1.5919006 c 0.255433,0.076486 0.757011,0.228192 1.114617,0.3371239 0.357606,0.1089321 0.783946,0.237889 0.947423,0.2865711 0.163477,0.048682 0.297231,0.1080526 0.297231,0.1319344 0,0.051154 -2.140437,0.755242 -2.298176,0.7559761 -0.05884,2.88e-4 -0.154018,-0.038576 -0.213678,-0.087217 -0.133428,-0.1087855 -0.53326,-0.3081067 -0.619471,-0.3088134 -0.03515,-2.88e-4 -0.139144,-0.027125 -0.2311,-0.059638 C 9.8482401,2.5425027 9.0555753,2.4534176 8.3999291,2.4515846 7.6303677,2.4494333 6.6867998,2.5683583 6.2264277,2.7255277 6.0357091,2.7906384 5.7769848,2.9457555 5.6902989,3.046962 5.6580541,3.0846075 5.5804256,3.104 5.4619723,3.104 5.2880164,3.104 5.2428689,3.0918612 4.9260423,2.9599042 4.6608194,2.8494404 3.567569,2.518284 3.5438826,2.5412346 c -0.012659,0.012266 -0.00273,0.087913 0.022068,0.1681053 0.064658,0.2091075 0.061697,1.4038236 -0.00358,1.4439456 -0.079445,0.048831 -0.1336785,0.035099 -0.1946855,-0.049296 z"
         id="path19227" />
    </g>
  </g>
</svg>
