<svg xmlns="http://www.w3.org/2000/svg" width="933.333" height="933.333" preserveAspectRatio="xMidYMid meet" version="1.0" viewBox="0 0 700 700"><metadata>Created by potrace 1.14, written by Peter Selinger 2001-2017</metadata><g fill="#000" stroke="none"><path d="M3430 6489 c-36 -4 -81 -10 -100 -14 -63 -11 -472 -107 -625 -146 -82 -21 -249 -62 -370 -90 -121 -28 -290 -68 -375 -90 -85 -21 -324 -79 -530 -128 -206 -49 -465 -110 -575 -136 -213 -51 -320 -83 -361 -110 -25 -16 -25 -17 -7 -37 10 -11 37 -29 60 -39 l43 -18 -3 -286 c-4 -315 3 -401 33 -450 11 -18 20 -38 20 -46 0 -7 -20 -34 -44 -59 -63 -64 -64 -78 -16 -132 48 -55 50 -83 9 -122 -39 -38 -81 -121 -81 -163 0 -49 26 -82 90 -111 80 -37 174 -37 254 0 31 14 62 36 68 49 19 34 6 104 -34 183 -40 78 -43 103 -21 146 9 17 16 51 17 76 2 42 -1 49 -36 81 l-38 35 25 56 c27 62 30 100 30 332 0 163 -9 269 -24 304 -7 14 -10 29 -6 32 13 13 437 -86 727 -169 178 -52 203 -56 325 -57 l90 0 0 -519 -1 -518 -66 -74 c-164 -183 -272 -358 -336 -541 -43 -122 -51 -193 -47 -438 3 -205 4 -220 33 -321 17 -58 46 -132 64 -165 18 -33 117 -179 219 -325 103 -145 322 -457 487 -694 165 -236 310 -443 322 -460 36 -51 173 -245 235 -335 274 -398 515 -738 548 -776 21 -24 52 -51 68 -59 40 -21 92 -19 122 5 32 25 168 211 443 605 321 459 1184 1692 1299 1855 109 154 136 201 167 290 70 201 75 544 12 799 -45 183 -204 426 -397 608 l-65 61 5 494 c3 271 6 494 7 495 0 1 28 4 61 8 153 17 1220 278 1392 341 40 15 62 40 46 55 -23 22 -299 102 -478 139 -22 4 -116 26 -210 49 -342 82 -808 193 -1120 267 -349 83 -727 174 -845 204 -207 53 -382 73 -510 59z m777 -855 c-3 -3 -12 -4 -19 -1 -8 3 -5 6 6 6 11 1 17 -2 13 -5z" transform="translate(0.000000,700.000000) scale(0.100000,-0.100000)"/></g></svg>